<?xml version="1.0" encoding="UTF-8" standalone="no"?>
<svg
   version="1.0"
   width="225pt"
   height="225pt"
   viewBox="0 0 225 225"
   preserveAspectRatio="xMidYMid meet"
   id="svg18"
   sodipodi:docname="d04383e56ccba64784e1bdea875d62fd.svg"
   xmlns:inkscape="http://www.inkscape.org/namespaces/inkscape"
   xmlns:sodipodi="http://sodipodi.sourceforge.net/DTD/sodipodi-0.dtd"
   xmlns="http://www.w3.org/2000/svg"
   xmlns:svg="http://www.w3.org/2000/svg">
  <defs
     id="defs22" />
  <sodipodi:namedview
     id="namedview20"
     pagecolor="#ffffff"
     bordercolor="#666666"
     borderopacity="1.0"
     inkscape:pageshadow="2"
     inkscape:pageopacity="0.0"
     inkscape:pagecheckerboard="0"
     inkscape:document-units="pt" />
  <metadata
     id="metadata2">
Created by potrace 1.16, written by Peter Selinger 2001-2019
</metadata>
  <g
     transform="matrix(0.1,0,0,-0.1,0,225)"
     fill="#000000"
     stroke="none"
     id="g16">
    <path
       d="M 0,1125 V 0 H 1125 2250 V 1125 2250 H 1125 0 Z m 1299,1080 c 509,-83 893,-512 918,-1026 C 2243,660 1902,194 1402,63 1283,32 1084,21 958,39 736,71 487,200 334,361 178,527 70,746 39,959 c -18,128 -7,334 25,450 150,544 681,886 1235,796 z"
       id="path4" />
    <path
       d="M 990,2184 C 919,2175 784,2137 708,2105 591,2055 489,1988 391,1894 222,1734 117,1541 74,1313 51,1192 59,979 90,860 215,384 634,60 1123,60 c 300,0 560,111 767,326 210,219 313,495 297,793 -27,482 -369,884 -842,987 -70,16 -288,26 -355,18 z m 355,-401 c 252,-39 410,-134 487,-291 32,-65 33,-70 32,-187 -3,-311 -119,-625 -280,-759 -84,-69 -225,-100 -459,-100 -189,-1 -296,16 -398,61 -178,80 -327,405 -344,754 -7,141 5,197 57,278 73,113 205,191 393,233 168,37 326,40 512,11 z"
       id="path6" />
    <path
       d="m 1025,1723 c -261,-24 -442,-102 -521,-224 -46,-73 -57,-136 -44,-266 12,-117 54,-306 83,-373 l 15,-35 -5,37 c -3,20 -2,58 1,83 14,88 105,156 210,157 123,1 172,-68 197,-276 20,-166 66,-231 166,-231 46,0 56,4 88,35 41,39 55,81 79,237 23,152 61,213 144,231 87,20 200,-28 239,-101 11,-20 17,-56 17,-95 1,-63 1,-63 15,-30 21,52 58,206 70,292 26,185 7,291 -66,373 l -38,42 -81,-13 c -144,-25 -241,-91 -300,-207 -25,-50 -46,-76 -78,-98 -53,-37 -62,-38 -70,-8 -8,32 -7,59 2,53 13,-8 52,23 52,40 0,8 -8,21 -19,30 -10,9 -16,24 -14,34 6,22 -33,51 -56,42 -21,-7 -31,-22 -31,-48 0,-12 -7,-24 -15,-28 -22,-8 -19,-53 5,-66 11,-6 25,-8 30,-5 15,9 12,-39 -4,-60 -13,-18 -14,-18 -50,4 -42,26 -74,66 -106,134 -44,93 -180,177 -294,180 -36,1 -62,5 -58,9 4,3 35,16 69,27 106,36 211,24 257,-28 24,-27 32,-27 40,2 9,37 65,96 120,127 56,32 56,33 -49,23 z M 873,1346 c 18,-7 81,-52 142,-98 l 109,-85 107,84 c 120,93 159,113 222,113 58,0 106,-18 207,-76 l 82,-48 -30,-28 c -45,-40 -101,-51 -212,-44 -141,10 -171,-2 -360,-142 -15,-11 -26,-6 -85,38 -37,28 -90,63 -118,77 -49,26 -60,27 -192,28 -117,0 -146,3 -178,19 -70,34 -66,48 25,101 44,27 97,54 117,61 48,17 124,17 164,0 z m 158,-301 c 16,-9 44,-29 62,-45 l 34,-29 24,25 c 32,34 87,62 140,70 l 44,7 -26,-30 c -33,-39 -46,-90 -59,-226 -11,-124 -27,-163 -75,-183 -44,-18 -69,-18 -106,2 -42,21 -66,81 -74,184 -9,125 -22,180 -52,219 l -26,34 42,-7 c 24,-3 56,-13 72,-21 z"
       id="path8" />
    <path
       d="m 1155,1714 c 58,-32 102,-73 125,-117 l 23,-44 44,31 c 59,41 149,48 240,17 71,-24 77,-25 68,-11 -9,14 -99,59 -164,81 -60,21 -190,44 -296,53 -69,6 -70,6 -40,-10 z"
       id="path10" />
    <path
       d="m 689,931 c -37,-38 -39,-82 -4,-117 22,-22 33,-25 75,-22 57,3 63,-6 27,-48 -31,-36 -122,-46 -163,-19 -26,17 -26,16 7,-30 53,-73 100,-110 170,-133 71,-23 194,-41 149,-22 -60,26 -100,86 -100,150 0,25 -7,47 -18,58 -13,13 -16,25 -11,38 21,53 -5,144 -47,163 -38,17 -53,14 -85,-18 z"
       id="path12" />
    <path
       d="m 1468,945 c -34,-19 -52,-74 -45,-134 4,-31 1,-52 -9,-65 -8,-11 -14,-35 -14,-53 0,-65 -31,-113 -95,-148 l -30,-17 53,7 c 132,15 217,60 281,150 29,41 31,46 11,35 -14,-7 -45,-10 -78,-8 -45,4 -60,10 -79,32 -33,39 -30,53 12,48 73,-9 120,36 108,102 -6,29 -46,66 -72,66 -9,-1 -28,-7 -43,-15 z"
       id="path14" />
  </g>
</svg>
